<svg xmlns="http://www.w3.org/2000/svg" width="105" height="32" viewBox="0 0 105 32">
    <g fill="none" fill-rule="evenodd">
        <rect width="105" height="31.549" fill="#000222" rx="4.93"/>
        <path fill="#FFF" d="M35.12 10.33c.244 0 .444-.025.6-.076.28-.094.508-.274.686-.542a2.22 2.22 0 0 0 .307-.823c.036-.2.054-.385.054-.556 0-.657-.13-1.167-.392-1.53-.26-.364-.681-.546-1.262-.546H33.84v4.073h1.282zm-2.003-4.69h2.148c.73 0 1.295.259 1.697.776.359.467.538 1.065.538 1.794 0 .564-.106 1.073-.318 1.528-.373.804-1.014 1.206-1.924 1.206h-2.141V5.64zm7.347 4.885c.43 0 .726-.163.886-.49.16-.326.24-.688.24-1.088 0-.361-.058-.655-.173-.88-.183-.357-.498-.535-.946-.535-.397 0-.686.151-.867.455-.18.303-.27.669-.27 1.097 0 .412.09.755.27 1.03.18.274.467.41.86.41zm.025-3.56c.498 0 .92.166 1.264.498.344.332.516.82.516 1.466 0 .623-.152 1.139-.455 1.545-.303.407-.774.61-1.412.61-.532 0-.954-.18-1.267-.54-.313-.36-.47-.842-.47-1.449 0-.65.166-1.167.495-1.552.33-.386.773-.578 1.329-.578zm3.444.112l.744 3.047.754-3.047h.73l.758 3.029.79-3.03h.65l-1.123 3.868h-.675l-.787-2.993-.762 2.993h-.675l-1.115-3.867h.71zm5.632 0h.617v.549c.183-.227.377-.39.581-.488a1.55 1.55 0 0 1 .683-.148c.549 0 .92.191 1.112.574.106.21.159.51.159.9v2.48h-.661V8.507c0-.236-.035-.426-.105-.57-.115-.242-.325-.362-.628-.362-.154 0-.28.016-.38.047a.976.976 0 0 0-.468.318.957.957 0 0 0-.212.395c-.032.136-.048.33-.048.583v2.026h-.65V7.077zm4.722-1.437h.65v5.304h-.65V5.64zm3.75 4.885c.431 0 .727-.163.887-.49.16-.326.24-.688.24-1.088 0-.361-.058-.655-.173-.88-.183-.357-.499-.535-.946-.535-.397 0-.686.151-.867.455-.18.303-.27.669-.27 1.097 0 .412.09.755.27 1.03.18.274.467.41.86.41zm.026-3.56c.498 0 .92.166 1.263.498.345.332.517.82.517 1.466 0 .623-.152 1.139-.455 1.545-.303.407-.774.61-1.412.61-.532 0-.954-.18-1.267-.54-.313-.36-.47-.842-.47-1.449 0-.65.165-1.167.495-1.552.33-.386.773-.578 1.329-.578zm3.642 2.95c0 .187.069.335.206.444.137.108.3.162.487.162.23 0 .45-.053.665-.159.36-.175.541-.463.541-.863v-.523c-.08.05-.181.093-.307.126a2.615 2.615 0 0 1-.368.073l-.393.05c-.236.031-.413.08-.531.148-.2.113-.3.294-.3.542zM63.28 8.6c.15-.019.25-.081.3-.187a.571.571 0 0 0 .043-.25c0-.22-.078-.382-.236-.481-.158-.1-.383-.15-.677-.15-.34 0-.58.091-.722.274-.08.101-.131.252-.155.451h-.607c.012-.476.167-.808.464-.994.297-.187.642-.28 1.034-.28.455 0 .825.087 1.109.26.281.173.422.443.422.809v2.227c0 .068.014.122.042.163.027.04.086.061.175.061a1.56 1.56 0 0 0 .213-.022v.48a1.81 1.81 0 0 1-.231.055c-.053.007-.125.01-.217.01-.224 0-.386-.079-.487-.238a.92.92 0 0 1-.112-.357 1.653 1.653 0 0 1-.57.451 1.765 1.765 0 0 1-.82.192c-.359 0-.652-.11-.88-.327a1.085 1.085 0 0 1-.34-.818c0-.359.111-.637.335-.834.224-.197.518-.319.881-.365l1.036-.13zm3.043.455c0 .414.088.761.264 1.04.176.28.457.419.845.419.3 0 .548-.13.742-.388.194-.259.29-.63.29-1.114 0-.489-.1-.85-.3-1.085a.935.935 0 0 0-.74-.352.977.977 0 0 0-.795.376c-.204.25-.306.618-.306 1.104zm.979-2.047c.296 0 .544.063.744.188.115.072.246.199.393.379V5.622h.625v5.322h-.585v-.538c-.152.238-.331.41-.538.516a1.54 1.54 0 0 1-.711.159c-.431 0-.804-.181-1.12-.544-.315-.362-.473-.844-.473-1.446 0-.563.144-1.05.432-1.464.288-.412.699-.619 1.233-.619zm7.494 3.517c.431 0 .727-.163.887-.49.16-.326.24-.688.24-1.088 0-.361-.058-.655-.174-.88-.183-.357-.498-.535-.946-.535-.397 0-.686.151-.866.455-.18.303-.27.669-.27 1.097 0 .412.09.755.27 1.03.18.274.467.41.86.41zm.026-3.56c.498 0 .919.166 1.263.498.344.332.517.82.517 1.466 0 .623-.152 1.139-.455 1.545-.304.407-.774.61-1.412.61-.532 0-.955-.18-1.267-.54-.313-.36-.47-.842-.47-1.449 0-.65.165-1.167.495-1.552.33-.386.772-.578 1.329-.578zm3.144.112h.617v.549c.183-.227.377-.39.581-.488a1.55 1.55 0 0 1 .683-.148c.549 0 .92.191 1.112.574.106.21.159.51.159.9v2.48h-.661V8.507c0-.236-.035-.426-.105-.57-.115-.242-.325-.362-.628-.362-.154 0-.28.016-.38.047a.976.976 0 0 0-.468.318.957.957 0 0 0-.212.395c-.032.136-.048.33-.048.583v2.026h-.65V7.077zm7.48-1.08h.657v1.08h.617v.53h-.617v2.524c0 .135.045.225.137.271.05.027.135.04.253.04a3.046 3.046 0 0 0 .227-.011v.513a1.45 1.45 0 0 1-.233.047c-.08.01-.168.014-.262.014-.303 0-.509-.078-.617-.233-.108-.155-.162-.357-.162-.605v-2.56h-.524v-.53h.524v-1.08zm2.516-.375h.65V7.6c.153-.195.292-.332.415-.411.21-.137.47-.206.783-.206.561 0 .941.196 1.141.588.108.215.163.512.163.892v2.48h-.668V8.508c0-.284-.037-.493-.109-.625-.118-.212-.34-.318-.664-.318-.27 0-.514.093-.733.278-.22.186-.329.536-.329 1.05v2.052h-.65V5.622zm6.314 1.368c.274 0 .54.065.798.193.257.13.453.296.588.5.13.195.217.423.26.683.039.178.058.462.058.852h-2.834c.012.392.104.707.278.944.173.237.441.356.805.356.34 0 .61-.112.812-.336.116-.13.198-.28.246-.451h.639c-.017.142-.073.3-.168.474a1.689 1.689 0 0 1-.32.428 1.514 1.514 0 0 1-.733.39 2.227 2.227 0 0 1-.53.058c-.482 0-.89-.175-1.224-.525-.335-.35-.502-.841-.502-1.472 0-.62.168-1.125.505-1.513.337-.387.778-.58 1.322-.58zm1.036 1.712c-.026-.282-.088-.507-.184-.676-.178-.313-.476-.469-.892-.469a.989.989 0 0 0-.75.323c-.203.216-.31.49-.322.822h2.148zM38.873 20.136l-1.556-4.53-1.655 4.53h3.211zm-2.282-6.052h1.57l3.72 10.254h-1.52l-1.041-3.071h-4.056l-1.11 3.071h-1.423l3.86-10.254zm9.542 9.41c.586 0 1.074-.246 1.462-.737.389-.491.583-1.225.583-2.202 0-.596-.086-1.108-.258-1.536-.326-.824-.922-1.236-1.787-1.236-.87 0-1.466.436-1.787 1.306-.172.465-.258 1.056-.258 1.773 0 .577.086 1.068.258 1.473.326.772.921 1.158 1.787 1.158zm-3.253-6.597h1.222v.991a3.05 3.05 0 0 1 .823-.789c.424-.279.922-.418 1.494-.418.847 0 1.566.324 2.157.973.591.65.886 1.577.886 2.782 0 1.629-.425 2.792-1.277 3.49a2.886 2.886 0 0 1-1.885.663c-.563 0-1.035-.123-1.417-.37-.223-.14-.472-.379-.747-.719v3.819H42.88V16.897zm11.203 6.596c.587 0 1.074-.245 1.463-.736.388-.491.583-1.225.583-2.202 0-.596-.086-1.108-.259-1.536-.325-.824-.921-1.236-1.787-1.236-.87 0-1.465.436-1.787 1.306-.172.465-.258 1.056-.258 1.773 0 .577.086 1.068.258 1.473.326.772.922 1.158 1.787 1.158zm-3.252-6.596h1.221v.991a3.05 3.05 0 0 1 .824-.789c.423-.279.921-.418 1.494-.418.847 0 1.566.324 2.157.973.59.65.886 1.577.886 2.782 0 1.629-.426 2.792-1.277 3.49a2.886 2.886 0 0 1-1.885.663c-.563 0-1.035-.123-1.417-.37-.223-.14-.472-.379-.747-.719v3.819h-1.256V16.897zm13.095 4.132c.032.582.17 1.054.412 1.417.46.68 1.272 1.02 2.436 1.02.52 0 .996-.075 1.424-.224.828-.288 1.242-.805 1.242-1.55 0-.558-.174-.956-.523-1.193-.354-.233-.908-.435-1.662-.607l-1.389-.315c-.907-.204-1.55-.43-1.926-.677-.652-.428-.978-1.068-.978-1.92 0-.92.32-1.677.957-2.268.637-.59 1.54-.886 2.708-.886 1.075 0 1.988.259 2.74.778.752.519 1.127 1.348 1.127 2.488H69.19c-.07-.549-.219-.97-.447-1.263-.423-.535-1.142-.803-2.157-.803-.819 0-1.407.172-1.766.517-.358.344-.537.744-.537 1.2 0 .503.21.87.628 1.103.275.15.896.335 1.864.559l1.438.328c.693.158 1.228.374 1.605.649.652.48.977 1.175.977 2.087 0 1.136-.413 1.948-1.239 2.436-.826.489-1.785.733-2.879.733-1.275 0-2.273-.326-2.995-.977-.72-.647-1.075-1.524-1.06-2.632h1.305zm8.711-6.254h1.27v2.087h1.194v1.026h-1.193v4.88c0 .26.088.435.265.523.098.051.26.077.489.077a3.75 3.75 0 0 0 .44-.02v.99a2.805 2.805 0 0 1-.45.09 4.28 4.28 0 0 1-.507.029c-.586 0-.984-.15-1.194-.45-.209-.3-.314-.69-.314-1.17v-4.949h-1.012v-1.026h1.012v-2.087zm6.687 8.753c.833 0 1.405-.315 1.714-.946.31-.63.464-1.332.464-2.104 0-.698-.111-1.266-.335-1.703-.353-.689-.963-1.033-1.829-1.033-.767 0-1.326.293-1.675.88-.349.585-.523 1.293-.523 2.121 0 .796.174 1.459.523 1.99.35.53.903.795 1.661.795zm.05-6.882c.963 0 1.777.32 2.442.963.666.642.999 1.587.999 2.834 0 1.205-.294 2.201-.88 2.988-.586.786-1.496 1.18-2.73 1.18-1.028 0-1.844-.349-2.45-1.044-.604-.696-.907-1.63-.907-2.803 0-1.256.319-2.257.957-3.001.637-.745 1.493-1.117 2.568-1.117zm4.97.216h1.193v1.291c.098-.25.337-.557.719-.917.382-.361.821-.541 1.32-.541.022 0 .062.002.118.007.056.004.151.013.286.027v1.327a1.877 1.877 0 0 0-.412-.035c-.633 0-1.119.203-1.459.61-.34.408-.51.877-.51 1.407v4.3h-1.256v-7.476zm7.838-.167c.53 0 1.045.124 1.543.373s.877.571 1.138.967c.251.377.419.816.502 1.32.075.343.112.893.112 1.646h-5.48c.024.759.203 1.367.538 1.826.335.458.854.687 1.557.687.656 0 1.18-.216 1.57-.649.223-.251.382-.542.475-.872h1.235c-.032.274-.14.58-.324.918-.184.337-.39.613-.618.827a2.928 2.928 0 0 1-1.417.754 4.305 4.305 0 0 1-1.026.111c-.93 0-1.72-.338-2.367-1.015-.646-.677-.97-1.626-.97-2.845 0-1.2.326-2.175.977-2.925.652-.749 1.504-1.123 2.555-1.123zm2.004 3.308c-.052-.544-.17-.98-.356-1.305-.345-.605-.92-.908-1.725-.908-.577 0-1.06.209-1.451.625-.391.417-.598.946-.622 1.588h4.154zM22.74 22.516c-.865 1.26-1.76 2.511-3.172 2.538-1.39.026-1.836-.82-3.423-.82-1.588 0-2.085.793-3.397.846-1.364.05-2.401-1.36-3.274-2.614-1.781-2.563-3.141-7.248-1.312-10.41.905-1.57 2.528-2.563 4.287-2.589 1.34-.025 2.605.899 3.423.899.819 0 2.355-1.109 3.97-.946.675.028 2.572.27 3.79 2.045-.096.063-2.264 1.32-2.238 3.935.027 3.125 2.75 4.163 2.782 4.177-.024.074-.435 1.483-1.436 2.94zM16.81 5.987c.748-.872 2.011-1.52 3.054-1.565.133 1.212-.357 2.426-1.08 3.3-.725.873-1.91 1.553-3.075 1.462-.158-1.186.429-2.422 1.1-3.197z"/>
    </g>
</svg>
