<svg xmlns="http://www.w3.org/2000/svg" width="105" height="32" viewBox="0 0 105 32">
    <g fill="none" fill-rule="evenodd">
        <rect width="105" height="31.549" fill="#000222" rx="4.93"/>
        <path fill="#FFF" d="M34.589 10.944V5.687h1.484c.457 0 .861.1 1.213.303.351.202.623.49.814.863.191.373.288.801.29 1.285v.336c0 .496-.095.93-.286 1.303-.192.374-.465.66-.82.86-.355.2-.768.302-1.24.307h-1.455zm.693-4.687v4.12h.73c.534 0 .95-.166 1.247-.498.297-.333.446-.806.446-1.42v-.306c0-.597-.14-1.061-.421-1.392-.28-.331-.678-.499-1.193-.504h-.81zm4.466 2.697c0-.382.075-.727.225-1.032.15-.306.36-.542.628-.708a1.71 1.71 0 0 1 .92-.25c.531 0 .962.185 1.29.553.329.369.493.858.493 1.47v.047c0 .38-.073.721-.218 1.023a1.659 1.659 0 0 1-.625.706 1.73 1.73 0 0 1-.933.253c-.53 0-.959-.184-1.288-.553-.328-.368-.492-.855-.492-1.462v-.047zm.671.08c0 .433.1.78.302 1.043.2.263.47.394.807.394.339 0 .609-.133.808-.4.2-.265.3-.638.3-1.117 0-.428-.102-.775-.305-1.041a.97.97 0 0 0-.81-.4.96.96 0 0 0-.799.394c-.202.263-.303.638-.303 1.127zm7.773.989l.751-2.986h.668l-1.137 3.907h-.542l-.95-2.961-.924 2.96h-.541l-1.134-3.906h.664l.77 2.925.91-2.925h.537l.928 2.986zm3.321-2.986l.022.491a1.424 1.424 0 0 1 1.17-.563c.825 0 1.242.466 1.249 1.397v2.582h-.668V8.359c-.002-.282-.067-.49-.193-.625-.127-.135-.323-.202-.59-.202a.964.964 0 0 0-.571.173 1.177 1.177 0 0 0-.383.455v2.784h-.668V7.037h.632zm4.765 3.907h-.667V5.398h.667v5.546zm1.484-1.99c0-.382.075-.727.225-1.032.15-.306.36-.542.629-.708a1.71 1.71 0 0 1 .919-.25c.532 0 .962.185 1.29.553.329.369.493.858.493 1.47v.047c0 .38-.073.721-.218 1.023a1.659 1.659 0 0 1-.625.706 1.73 1.73 0 0 1-.933.253c-.53 0-.959-.184-1.287-.553-.329-.368-.493-.855-.493-1.462v-.047zm.671.08c0 .433.1.78.302 1.043.2.263.47.394.807.394.34 0 .609-.133.809-.4.2-.265.3-.638.3-1.117 0-.428-.102-.775-.306-1.041a.97.97 0 0 0-.81-.4.96.96 0 0 0-.798.394c-.203.263-.304.638-.304 1.127zm6.726 1.91c-.038-.077-.07-.215-.094-.412a1.49 1.49 0 0 1-1.112.484c-.385 0-.7-.109-.947-.327a1.057 1.057 0 0 1-.37-.828c0-.407.154-.723.463-.948.31-.225.745-.338 1.306-.338h.65v-.307c0-.233-.07-.42-.21-.558-.14-.138-.345-.207-.617-.207a.974.974 0 0 0-.6.18c-.16.12-.242.266-.242.437h-.671c0-.195.07-.383.207-.565.139-.182.327-.325.564-.431.237-.106.497-.16.781-.16.45 0 .803.113 1.058.338.255.225.388.535.397.93v1.798c0 .359.046.644.138.856v.058h-.7zm-1.108-.51c.21 0 .408-.054.596-.162a.983.983 0 0 0 .408-.422v-.802h-.524c-.818 0-1.228.24-1.228.719 0 .209.07.373.21.49.14.119.319.178.538.178zm3.148-1.476c0-.6.142-1.081.426-1.446a1.347 1.347 0 0 1 1.115-.547c.458 0 .82.156 1.087.47V5.397h.668v5.546h-.614l-.032-.42c-.267.328-.64.492-1.116.492-.452 0-.821-.185-1.107-.556-.285-.37-.427-.855-.427-1.452v-.05zm.668.076c0 .443.091.79.274 1.04.183.25.436.375.758.375.424 0 .733-.19.928-.57V8.084c-.2-.368-.507-.552-.92-.552a.891.891 0 0 0-.766.379c-.183.253-.274.627-.274 1.123zm6.5-.08c0-.382.076-.727.227-1.032.15-.306.36-.542.628-.708a1.71 1.71 0 0 1 .919-.25c.532 0 .962.185 1.29.553.329.369.493.858.493 1.47v.047c0 .38-.072.721-.218 1.023a1.659 1.659 0 0 1-.625.706 1.73 1.73 0 0 1-.933.253c-.53 0-.959-.184-1.287-.553-.329-.368-.493-.855-.493-1.462v-.047zm.672.08c0 .433.101.78.302 1.043.201.263.47.394.807.394.34 0 .609-.133.809-.4.2-.265.3-.638.3-1.117 0-.428-.102-.775-.306-1.041a.97.97 0 0 0-.81-.4.96.96 0 0 0-.798.394c-.202.263-.304.638-.304 1.127zm4.946-1.997l.022.491a1.424 1.424 0 0 1 1.17-.563c.825 0 1.242.466 1.25 1.397v2.582h-.669V8.359c-.002-.282-.067-.49-.193-.625s-.323-.202-.59-.202a.964.964 0 0 0-.57.173 1.177 1.177 0 0 0-.384.455v2.784h-.667V7.037h.631zM77.9 21.741c0 .974-.216 1.748-.647 2.32-.431.571-1.01.857-1.733.857-.855 0-1.51-.3-1.964-.9v3.188h-.688v-8.654h.641l.035.884c.45-.666 1.104-1 1.958-1 .748 0 1.334.284 1.76.85.425.566.638 1.352.638 2.357v.098zm-.693-.121c0-.797-.164-1.427-.491-1.89-.328-.461-.784-.692-1.37-.692-.423 0-.787.102-1.091.306-.305.204-.538.5-.7.89v2.998c.166.358.403.631.711.82.308.189.672.283 1.092.283.582 0 1.035-.232 1.36-.696.326-.464.489-1.137.489-2.02zm2.998 3.183h-.693V15.93h.693v8.873zm5.823 0c-.07-.197-.114-.487-.133-.872a2.41 2.41 0 0 1-.927.73 2.84 2.84 0 0 1-1.193.257c-.6 0-1.087-.167-1.459-.502a1.637 1.637 0 0 1-.557-1.271c0-.609.253-1.09.76-1.444.506-.355 1.212-.532 2.117-.532h1.253v-.71c0-.447-.137-.799-.413-1.055-.275-.256-.677-.384-1.204-.384-.482 0-.88.123-1.196.37-.316.246-.474.543-.474.89l-.693-.006c0-.497.231-.927.693-1.291.462-.364 1.03-.546 1.704-.546.697 0 1.247.174 1.65.523.402.348.61.834.62 1.458v2.958c0 .605.064 1.057.191 1.357v.07h-.74zm-2.172-.497a2.32 2.32 0 0 0 1.239-.335c.364-.223.629-.522.794-.895V21.7h-1.236c-.69.007-1.229.133-1.618.378-.388.245-.583.58-.583 1.008 0 .35.13.641.39.872.26.231.598.347 1.014.347zm6.545-.497l1.825-5.257h.746l-2.67 7.314-.138.323c-.343.759-.872 1.138-1.589 1.138a1.94 1.94 0 0 1-.531-.08l-.006-.572.358.034c.34 0 .614-.084.824-.251.21-.168.388-.456.534-.864l.306-.843-2.357-6.199h.757L90.4 23.81zm-51.867-3.997h4.082c.045.217.064.478.064.76 0 .906-.251 2.035-1.05 2.834-.779.808-1.774 1.242-3.096 1.242-2.445 0-4.5-1.992-4.5-4.437 0-2.445 2.055-4.436 4.5-4.436 1.351 0 2.317.532 3.037 1.232l-.853.853a3.082 3.082 0 0 0-2.184-.868c-1.784 0-3.18 1.44-3.18 3.224 0 1.785 1.396 3.224 3.18 3.224 1.154 0 1.815-.463 2.238-.887.346-.35.572-.848.661-1.528h-2.899v-1.213zm7.77-.986c1.582 0 2.873 1.203 2.873 2.864 0 1.652-1.291 2.864-2.874 2.864-1.582 0-2.873-1.217-2.873-2.864 0-1.661 1.291-2.864 2.873-2.864zm0 4.6c.867 0 1.616-.715 1.616-1.736 0-1.03-.749-1.735-1.617-1.735-.867 0-1.616.705-1.616 1.735 0 1.02.749 1.735 1.616 1.735zm14.088-3.96v-.492h1.193v5.151c0 2.115-1.247 2.983-2.721 2.983-1.39 0-2.223-.932-2.539-1.691l1.095-.454c.197.469.675 1.02 1.444 1.02.942 0 1.528-.586 1.528-1.68v-.4h-.044c-.281.346-.823.651-1.509.651-1.43 0-2.676-1.257-2.676-2.864 0-1.617 1.247-2.864 2.676-2.864.686 0 1.228.306 1.509.64h.044zm-1.444 3.96c.858 0 1.533-.725 1.528-1.726 0-1.006-.67-1.745-1.528-1.745-.868 0-1.528.725-1.528 1.735 0 .996.66 1.735 1.528 1.735zm-6.236-4.6c1.582 0 2.874 1.203 2.874 2.864 0 1.652-1.292 2.864-2.874 2.864s-2.874-1.217-2.874-2.864c0-1.661 1.292-2.864 2.874-2.864zm0 4.6c.868 0 1.617-.715 1.617-1.736 0-1.03-.75-1.735-1.617-1.735-.868 0-1.617.705-1.617 1.735 0 1.02.75 1.735 1.617 1.735zm9.86-7.533h1.236v8.661H62.57v-8.661zm5.057 7.532c.64 0 1.084-.315 1.41-.788l.976.65c-.316.464-1.075 1.267-2.386 1.267-1.627 0-2.84-1.257-2.84-2.864 0-1.705 1.228-2.864 2.702-2.864 1.484 0 2.213 1.183 2.45 1.824l.128.325-3.83 1.583c.295.577.749.867 1.39.867zm-.089-3.524c-.65 0-1.503.498-1.503 1.7l2.588-1.07c-.143-.369-.577-.63-1.085-.63zM7.887 24.285V7.266c0-.594.345-1.107.844-1.35l9.845 9.857-9.849 9.86a1.502 1.502 0 0 1-.84-1.348zM21.7 18.9l-10.764 6.223 8.49-8.5 2.274 2.277zm3.346-4.317a1.5 1.5 0 0 1 .016 2.373l-2.286 1.322-2.503-2.505 2.5-2.504 2.273 1.314zM10.94 6.429l10.756 6.218-2.273 2.276-8.483-8.494z"/>
    </g>
</svg>
